<svg xmlns="http://www.w3.org/2000/svg" width="640" height="480"><title>lined_paper</title><g><title>Layer 1</title><line id="svg_6" x1="0" x2="640" y1="31" y2="31" fill="none" stroke="#005fbf" stroke-width="1.669"/><line id="svg_7" x1="0" x2="640" y1="63" y2="63" fill="none" stroke="#005fbf" stroke-width="1.669"/><line id="svg_10" x1="0" x2="640" y1="95" y2="95" fill="none" stroke="#005fbf" stroke-width="1.669"/><line id="svg_11" x1="0" x2="640" y1="127" y2="127" fill="none" stroke="#005fbf" stroke-width="1.669"/><line id="svg_12" x1="0" x2="640" y1="159" y2="159" fill="none" stroke="#005fbf" stroke-width="1.669"/><line id="svg_13" x1="0" x2="640" y1="191" y2="191" fill="none" stroke="#005fbf" stroke-width="1.669"/><line id="svg_14" x1="0" x2="640" y1="223" y2="223" fill="none" stroke="#005fbf" stroke-width="1.669"/><line id="svg_15" x1="0" x2="640" y1="255" y2="255" fill="none" stroke="#005fbf" stroke-width="1.669"/><line id="svg_16" x1="0" x2="640" y1="287" y2="287" fill="none" stroke="#005fbf" stroke-width="1.669"/><line id="svg_17" x1="0" x2="640" y1="319" y2="319" fill="none" stroke="#005fbf" stroke-width="1.669"/><line id="svg_18" x1="0" x2="640" y1="351" y2="351" fill="none" stroke="#005fbf" stroke-width="1.669"/><line id="svg_19" x1="0" x2="640" y1="383" y2="383" fill="none" stroke="#005fbf" stroke-width="1.669"/><line id="svg_20" x1="0" x2="640" y1="415" y2="415" fill="none" stroke="#005fbf" stroke-width="1.669"/><line id="svg_21" x1="0" x2="640" y1="447" y2="447" fill="none" stroke="#005fbf" stroke-width="1.669"/><line id="svg_22" x1="0" x2="640" y1="479.125" y2="479.125" fill="none" stroke="#005fbf" stroke-width="1.669"/></g></svg>